<svg width="17" height="17" viewBox="0 0 17 17" fill="none" xmlns="http://www.w3.org/2000/svg">
<g clip-path="url(#clip0)">
<path d="M14.5093 2.49105C11.1883 -0.82994 5.8127 -0.830438 2.49118 2.49105C-0.829851 5.81212 -0.830283 11.1877 2.49118 14.5092C5.8122 17.8302 11.1878 17.8307 14.5093 14.5092C17.8303 11.1881 17.8308 5.81255 14.5093 2.49105ZM8.50022 16.4671C4.10724 16.4671 0.533263 12.8931 0.533263 8.5001C0.533263 4.10712 4.10724 0.533141 8.50022 0.533141C12.8932 0.533141 16.4672 4.10712 16.4672 8.5001C16.4672 12.8931 12.8932 16.4671 8.50022 16.4671Z" fill="#393A3A"/>
<path d="M14.5867 10.8668C13.6873 9.58766 12.4075 8.62472 10.9442 8.11507C11.7497 7.41378 12.218 6.40028 12.218 5.31319C12.218 3.26313 10.5502 1.59528 8.50009 1.59528C6.45002 1.59528 4.78217 3.26313 4.78217 5.31319C4.78217 6.40025 5.2504 7.41371 6.05596 8.11507C4.59262 8.62472 3.31287 9.58766 2.4135 10.8668C2.24884 11.101 2.22753 11.4038 2.35793 11.6571C3.53129 13.9362 5.88347 15.4047 8.50005 15.4047C11.1152 15.4047 13.4681 13.9376 14.6422 11.657C14.7726 11.4038 14.7513 11.101 14.5867 10.8668ZM5.3133 5.31319C5.3133 3.55598 6.74287 2.12641 8.50009 2.12641C10.2573 2.12641 11.6869 3.55598 11.6869 5.31319C11.6869 6.40008 11.141 7.40163 10.2268 7.99225C10.2268 7.99228 10.2267 7.99231 10.2267 7.99235C9.18027 8.66768 7.82548 8.67123 6.77355 7.99235C6.77348 7.99231 6.77345 7.99228 6.77338 7.99225C5.85914 7.40156 5.3133 6.40005 5.3133 5.31319ZM14.17 11.414C11.7973 16.0225 5.20333 16.0235 2.8302 11.414C2.79053 11.3369 2.79737 11.2443 2.84803 11.1722C3.75599 9.88095 5.0809 8.9363 6.58838 8.50263C7.72676 9.18769 9.20606 9.2261 10.4119 8.50263C11.9193 8.9363 13.2442 9.88095 14.1522 11.1722C14.2028 11.2443 14.2097 11.3369 14.17 11.414Z" fill="#393A3A"/>
</g>
<defs>
<clipPath id="clip0">
<rect width="17" height="17" fill="white"/>
</clipPath>
</defs>
</svg>
