<svg width="17" height="17" viewBox="0 0 17 17" fill="none" xmlns="http://www.w3.org/2000/svg">
<path d="M10.1814 13.4475L8.08998 11.4426C7.59544 10.9684 6.84174 10.9173 6.29809 11.3214C6.29789 11.3215 6.29536 11.3233 6.29526 11.3235L6.286 11.3304C6.27489 11.3388 6.26446 11.3389 6.25744 11.3377C6.24516 11.3354 6.24009 11.3276 6.23834 11.3245C5.75521 10.5575 5.42851 9.71441 5.26701 8.81861C5.1057 7.92262 5.11779 7.01805 5.30336 6.13015C5.30395 6.12712 5.3057 6.11913 5.31525 6.11338C5.32305 6.1088 5.33163 6.10783 5.34108 6.11065L5.3555 6.11484C6.00764 6.30568 6.69857 5.99399 6.99788 5.37401L8.36668 2.53974C8.55956 2.14033 8.47691 1.66343 8.16132 1.35203C8.04943 1.23878 7.92204 1.13225 7.78257 1.03517C6.53337 0.167542 4.82841 0.429332 3.90104 1.63127C3.84344 1.70651 3.78993 1.78526 3.73837 1.86479L3.73778 1.86567C3.55221 2.14042 3.46011 2.31196 3.32102 2.57112L3.29139 2.62619C3.25796 2.68788 2.46928 4.148 2.27493 5.17597C1.97367 6.77049 2.00038 8.4194 2.35252 9.94424C2.72454 11.5549 3.43184 12.9881 4.45454 14.2036C4.71409 14.5121 5.19488 14.1083 4.93504 13.7994C3.97677 12.6606 3.31371 11.3159 2.9644 9.80291C2.63175 8.36199 2.60661 6.80246 2.89198 5.29253C3.06791 4.36145 3.83535 2.94003 3.84373 2.92472L3.87414 2.8681C3.99548 2.64217 4.12306 2.42463 4.26302 2.20982L4.26517 2.20641C4.30727 2.13984 4.3522 2.07532 4.39986 2.01265C5.12295 1.07767 6.45081 0.874844 7.42419 1.55086C7.53258 1.6261 7.63062 1.70817 7.71581 1.79452C7.71698 1.79579 7.71825 1.79706 7.71951 1.79832C7.84446 1.92084 7.87731 2.10914 7.80119 2.26664L6.43249 5.10092C6.26699 5.44341 5.88815 5.61641 5.53221 5.51241L5.52032 5.50881C5.34352 5.45608 5.15161 5.47976 4.99381 5.57391C4.83719 5.66729 4.72598 5.82313 4.68875 6.00169C4.48651 6.96893 4.47325 7.9541 4.64908 8.93002C4.82481 9.90545 5.18065 10.8236 5.70696 11.6591C5.80443 11.8141 5.96359 11.9219 6.1436 11.9551C6.32528 11.9886 6.51456 11.9439 6.66397 11.8317L6.67255 11.8254C6.96942 11.6048 7.38277 11.6344 7.65538 11.8958L9.74678 13.9007C10.0019 14.1455 10.0068 14.5582 9.83957 14.8517C9.5461 15.3629 8.93792 15.7056 8.37155 15.8017C7.79485 15.8993 7.2124 15.7695 6.73171 15.4356C6.40062 15.2057 6.04195 15.721 6.37352 15.9513C6.85617 16.2865 7.41864 16.4615 7.99505 16.4615C8.15489 16.4615 8.316 16.448 8.47642 16.4208C9.22836 16.2932 9.99726 15.838 10.3841 15.1644L10.3913 15.1518C10.6983 14.6169 10.636 13.8835 10.1814 13.4475Z" fill="#393A3A"/>
<path d="M11.3179 3.37841C9.45514 3.37841 7.93986 4.89378 7.93986 6.75662C7.93986 6.91938 7.95165 7.08332 7.97514 7.24521L7.41511 9.06448C7.35614 9.2558 7.50166 9.45999 7.69863 9.47032L9.43467 9.56125C9.99236 9.93678 10.6415 10.1347 11.3179 10.1347C13.1806 10.1347 14.6961 8.61926 14.6961 6.75662C14.6961 4.89378 13.1806 3.37841 11.3179 3.37841ZM11.3179 9.50677C10.7417 9.50677 10.1899 9.33046 9.72238 8.99684C9.67375 8.96214 9.61615 8.94196 9.5566 8.93894L8.13362 8.86428L8.59657 7.3607C8.65096 7.1841 8.56782 6.94024 8.56782 6.75662C8.56782 5.24007 9.80143 4.00647 11.3179 4.00647C12.8343 4.00647 14.068 5.24007 14.068 6.75662C14.068 8.27297 12.8343 9.50677 11.3179 9.50677Z" fill="#393A3A"/>
<path d="M10.1778 6.53124C10.007 6.53124 9.86377 6.67451 9.86377 6.84517C9.86377 7.01592 10.0071 7.15929 10.1778 7.15929C10.3435 7.15929 10.4838 7.02411 10.4911 6.85891C10.4988 6.68309 10.3541 6.53124 10.1778 6.53124Z" fill="#393A3A"/>
<path d="M5.52887 14.6263C5.35811 14.6263 5.21484 14.7696 5.21484 14.9402C5.21484 15.1108 5.35821 15.2542 5.52887 15.2542C5.69456 15.2542 5.83491 15.1192 5.84222 14.9539C5.84991 14.7784 5.70489 14.6263 5.52887 14.6263Z" fill="#393A3A"/>
<path d="M11.4128 6.53124C11.2418 6.53124 11.0989 6.67412 11.0989 6.84517C11.0989 7.01612 11.2421 7.15929 11.4128 7.15929C11.5787 7.1591 11.7187 7.0243 11.7259 6.85891C11.7336 6.68309 11.5894 6.53124 11.4128 6.53124Z" fill="#393A3A"/>
<path d="M12.6477 6.53124C12.477 6.53124 12.3337 6.67451 12.3337 6.84517C12.3338 7.01592 12.4772 7.15929 12.6477 7.15929C12.8136 7.15929 12.9537 7.02411 12.961 6.85891C12.9689 6.68309 12.8242 6.53124 12.6477 6.53124Z" fill="#393A3A"/>
</svg>
